# xmcd CD database file
#
# Track frame offsets:
#	150
#	19069
#	56843
#	88624
#	113799
#	148440
#	171473
#	201008
#	236280
#	263925
#
# Disc length: 3716 seconds
#
# Revision: 0
# Processed by: cddbd v1.5.1PL2 Copyright (c) Steve Scherf et al.
# Submitted via: CDex 1.51
#
DISCID=900e820a
DTITLE=井上陽介 - Peace
DYEAR=2001
DGENRE=Jazz
TTITLE0=Purple Haze
TTITLE1=Alone Together
TTITLE2=All Blues
TTITLE3=Memory Of
TTITLE4=Chicken
TTITLE5=Donna Lee
TTITLE6=Toko
TTITLE7=My One And Only Love
TTITLE8=So What
TTITLE9=Air On The G String
EXTD=YEAR: 2001
EXTT0=
EXTT1=
EXTT2=
EXTT3=
EXTT4=
EXTT5=
EXTT6=
EXTT7=
EXTT8=
EXTT9=
PLAYORDER=
